<?xml version="1.0" standalone="no"?>
<!DOCTYPE svg PUBLIC "-//W3C//DTD SVG 20010904//EN"
 "http://www.w3.org/TR/2001/REC-SVG-20010904/DTD/svg10.dtd">
<svg version="1.0" xmlns="http://www.w3.org/2000/svg"
 width="192.000000pt" height="192.000000pt" viewBox="0 0 192.000000 192.000000"
 preserveAspectRatio="xMidYMid meet">
<metadata>
Created by potrace 1.10, written by Peter Selinger 2001-2011
</metadata>
<g transform="translate(0.000000,192.000000) scale(0.100000,-0.100000)"
fill="#000000" stroke="none">
<path d="M745 1895 c-350 -77 -647 -376 -720 -726 -17 -80 -20 -153 -6 -130 7
11 10 7 14 -15 l4 -29 2 30 c2 47 28 176 47 231 55 166 159 311 316 440 35 30
132 85 206 118 61 27 221 65 285 67 24 1 26 3 9 6 -12 2 -20 9 -17 14 9 13
-68 10 -140 -6z"/>
<path d="M1040 1900 c11 -7 6 -10 -20 -11 -19 -1 8 -7 60 -14 317 -45 576
-234 710 -518 65 -136 85 -232 85 -397 0 -110 -8 -192 -24 -232 -5 -12 -15
-43 -22 -68 -27 -96 -113 -241 -193 -328 -137 -148 -342 -253 -561 -286 -49
-8 -74 -15 -55 -15 26 -1 31 -4 20 -11 -24 -15 47 -12 130 5 173 36 324 120
460 255 143 141 227 291 265 470 17 83 20 153 5 130 -7 -10 -10 13 -10 73 0
56 4 86 10 82 15 -9 12 52 -5 135 -74 353 -372 651 -726 725 -82 17 -152 20
-129 5z"/>
<path d="M765 1655 c-33 -8 -80 -18 -105 -24 -60 -13 -80 -21 -80 -33 0 -5 -9
-6 -20 -3 -14 4 -20 2 -18 -7 2 -7 -4 -13 -12 -13 -8 0 -17 -3 -20 -7 -3 -3
-12 -8 -20 -10 -8 -2 -23 -13 -33 -26 -10 -12 -23 -20 -28 -17 -5 4 -19 -5
-31 -18 -13 -13 -36 -32 -51 -42 -15 -10 -25 -20 -22 -23 3 -3 -4 -11 -15 -19
-11 -8 -20 -21 -20 -29 0 -8 -7 -14 -15 -14 -8 0 -15 -7 -15 -15 0 -8 -4 -15
-9 -15 -5 0 -12 -13 -16 -30 -4 -16 -10 -30 -14 -30 -4 0 -15 -23 -25 -51 -14
-37 -21 -47 -28 -37 -7 9 -8 7 -3 -8 3 -11 -2 -38 -12 -60 -24 -54 -25 -254
-1 -301 9 -18 14 -43 11 -55 -4 -18 -3 -20 6 -8 9 13 11 12 12 -5 1 -11 0 -28
-1 -39 -1 -11 3 -15 9 -12 7 5 11 -3 11 -18 0 -14 5 -26 10 -26 6 0 10 -7 10
-15 0 -8 5 -15 10 -15 6 0 10 -7 10 -16 0 -8 4 -13 8 -10 5 3 16 -4 25 -14 10
-13 25 -18 39 -16 13 3 26 5 31 5 4 1 7 8 7 16 0 8 5 15 11 15 6 0 16 6 23 12
46 44 87 78 96 78 5 0 10 5 10 10 0 6 6 10 14 10 7 0 24 10 38 23 13 12 43 28
66 35 23 7 42 18 42 24 0 6 14 8 38 4 23 -3 30 -2 17 3 -16 7 -15 9 13 14 18
4 47 4 64 2 24 -4 28 -3 13 3 -16 7 -12 10 20 15 95 16 311 4 298 -16 -3 -6
-1 -7 5 -3 7 4 29 4 49 0 31 -6 34 -8 18 -15 -17 -6 -15 -8 9 -8 44 -1 136
-33 136 -47 0 -7 8 -10 20 -7 14 4 20 0 20 -11 0 -9 8 -16 21 -16 11 0 17 -4
14 -10 -3 -5 0 -10 9 -10 8 0 16 -4 18 -8 2 -4 36 -34 75 -66 59 -47 78 -57
98 -52 14 4 25 13 25 21 0 8 7 15 15 15 8 0 15 7 15 15 0 8 5 15 11 15 6 0 8
7 5 15 -3 9 1 18 9 22 9 3 15 10 14 17 -3 25 2 37 12 30 7 -4 9 0 5 14 -4 11
-1 26 6 33 7 8 13 22 14 32 2 50 5 61 12 50 4 -6 7 49 7 122 0 73 -3 129 -6
123 -3 -5 -9 5 -13 24 -8 43 -47 141 -59 149 -6 4 -7 14 -4 23 4 9 1 15 -6 13
-7 -1 -11 6 -9 16 2 10 -3 17 -13 17 -8 0 -15 6 -15 13 0 16 -94 117 -109 117
-6 0 -11 7 -11 15 0 8 -7 15 -15 15 -8 0 -15 5 -15 10 0 6 -7 10 -15 10 -8 0
-15 5 -15 10 0 6 -3 9 -7 8 -17 -3 -64 23 -58 32 4 6 -5 10 -21 10 -15 0 -24
3 -21 7 12 12 -68 37 -213 67 -91 19 -281 19 -365 1z m420 -32 c150 -42 315
-145 401 -251 55 -67 109 -171 129 -249 19 -73 19 -222 0 -293 -16 -59 -73
-180 -104 -219 l-19 -24 -53 53 c-105 105 -278 193 -435 220 -101 18 -308 8
-399 -19 -124 -37 -245 -103 -330 -183 -61 -57 -79 -69 -86 -57 -87 132 -118
216 -126 344 -11 182 48 327 192 470 116 116 238 183 405 220 94 21 332 14
425 -12z"/>
<path d="M974 1581 c-28 -12 -64 -59 -64 -83 0 -29 28 -65 60 -78 75 -31 166
37 140 105 -17 44 -91 75 -136 56z m98 -54 c9 -7 16 -23 15 -35 0 -12 -3 -19
-5 -17 -2 2 -12 -5 -23 -16 -27 -27 -65 -24 -94 7 -29 31 -29 33 -11 57 28 37
74 39 118 4z"/>
<path d="M720 1510 c0 -6 36 -62 79 -126 44 -64 83 -129 86 -145 5 -22 -7 -59
-49 -158 -31 -71 -56 -135 -56 -140 0 -32 38 0 99 83 38 52 74 97 79 100 13 8
34 -12 112 -102 41 -47 67 -69 73 -63 14 14 -8 90 -50 177 -32 66 -34 74 -21
100 11 24 181 162 238 194 10 6 12 12 5 19 -7 6 -65 -9 -170 -45 -136 -46
-164 -53 -189 -44 -16 5 -71 44 -121 85 -89 72 -115 87 -115 65z m157 -136
c18 -14 43 -27 54 -29 11 -2 29 -7 40 -10 19 -6 74 7 116 27 13 6 26 8 30 5 3
-4 15 0 25 10 10 9 21 13 25 10 3 -4 -21 -34 -55 -66 -40 -38 -62 -68 -63 -83
0 -13 -2 -35 -3 -50 -1 -15 4 -30 11 -32 7 -3 13 -15 13 -26 0 -11 5 -20 10
-20 6 0 10 -8 10 -17 0 -10 7 -26 15 -36 14 -19 10 -47 -6 -47 -4 0 -5 7 -2
17 4 10 2 14 -4 10 -6 -4 -23 10 -39 31 -64 86 -97 93 -139 32 -31 -45 -39
-50 -30 -17 7 22 7 22 -9 2 -18 -23 -21 -49 -4 -39 7 4 8 3 4 -4 -7 -11 -36
-6 -36 7 0 3 11 25 24 48 56 98 55 153 -5 249 -41 64 -37 70 18 28z"/>
<path d="M455 1345 c-40 -39 -29 -85 25 -103 81 -29 148 57 84 107 -36 28 -79
27 -109 -4z m103 -7 c18 -18 15 -59 -5 -74 -38 -29 -103 -6 -103 36 0 36 17
50 60 50 20 0 41 -5 48 -12z"/>
<path d="M620 1244 c-36 -30 -75 -57 -88 -61 -14 -3 -69 11 -143 37 -136 49
-169 45 -92 -11 141 -100 156 -131 119 -249 -14 -45 -26 -85 -26 -91 0 -18 26
-9 40 15 32 52 84 106 100 106 11 0 39 -30 72 -75 54 -77 68 -88 68 -57 0 27
-12 62 -19 58 -3 -2 -7 10 -7 27 -1 18 -7 52 -13 77 -7 25 -10 63 -7 85 5 35
4 37 -5 15 -10 -24 -6 -111 7 -144 10 -25 -37 -16 -59 12 -22 27 -37 28 -68 3
-13 -10 -30 -16 -36 -14 -8 3 -13 -5 -13 -21 0 -14 -4 -26 -10 -26 -13 0 -13
20 2 74 14 54 1 92 -51 144 l-36 35 30 -7 30 -7 -24 17 c-18 13 -26 14 -29 6
-4 -13 -22 -6 -22 9 0 14 31 11 90 -11 79 -29 109 -26 164 15 43 34 61 36 34
5 -11 -12 -10 -12 5 -1 15 12 17 11 17 -8 0 -11 -4 -21 -10 -21 -5 0 -10 -4
-10 -10 0 -25 18 -6 43 45 27 55 34 85 20 85 -5 -1 -37 -26 -73 -56z"/>
<path d="M1350 1258 c-24 -26 -25 -37 -4 -66 32 -46 124 -20 124 35 0 50 -82
72 -120 31z m84 -17 c17 -18 17 -20 -3 -40 -16 -16 -26 -18 -43 -12 -29 11
-35 41 -12 58 24 18 38 16 58 -6z"/>
<path d="M1505 1189 c-86 -72 -99 -73 -224 -19 -50 22 -99 40 -107 40 -32 0
-10 -28 61 -73 75 -49 105 -82 105 -114 0 -10 -13 -54 -30 -96 -34 -88 -36
-103 -16 -110 9 -4 30 18 60 64 25 38 50 69 56 69 5 0 39 -40 76 -90 83 -111
100 -119 69 -29 -22 60 -45 165 -45 199 0 16 18 69 40 116 59 127 56 129 -45
43z m25 -28 c0 -5 -9 -31 -21 -58 -21 -48 -22 -76 -3 -188 l6 -40 -42 43 c-23
23 -49 42 -58 42 -9 0 -31 -14 -49 -32 -37 -36 -39 -32 -19 36 20 64 12 94
-37 144 -22 23 -39 42 -37 42 3 0 28 -8 55 -19 63 -24 107 -20 153 13 39 28
52 32 52 17z"/>
<path d="M31 915 c-1 -36 -4 -46 -11 -35 -15 24 -12 -47 5 -130 36 -173 120
-324 255 -460 141 -143 291 -227 470 -265 83 -17 153 -20 130 -5 -11 7 -6 10
20 11 19 0 -8 8 -60 16 -251 38 -447 150 -600 340 -70 86 -93 128 -150 268
-18 43 -41 154 -49 230 -7 66 -9 72 -10 30z"/>
<path d="M447 536 c-32 -25 -66 -99 -76 -166 -7 -42 -5 -52 13 -74 12 -16 31
-26 46 -26 145 -1 196 3 220 15 24 12 30 12 46 0 22 -17 87 -19 115 -5 13 8
25 7 41 -1 17 -9 28 -8 54 6 29 16 34 16 56 1 14 -9 32 -14 40 -11 8 3 35 1
59 -4 31 -7 55 -7 82 1 25 8 41 8 48 1 6 -6 29 -7 63 -1 31 4 74 4 102 -1 45
-9 52 -8 83 18 45 36 74 92 79 155 4 46 1 55 -26 84 -34 37 -74 42 -124 16
-28 -15 -33 -14 -64 2 -29 16 -36 16 -58 4 -20 -10 -28 -10 -40 -1 -17 14 -82
12 -108 -3 -13 -8 -24 -7 -38 2 -25 15 -53 15 -68 0 -10 -10 -17 -10 -32 0
-17 10 -25 9 -45 -4 -23 -15 -27 -15 -50 0 -29 19 -87 21 -115 4 -15 -9 -24
-9 -43 1 -16 9 -40 11 -68 7 -49 -7 -54 -7 -120 -2 -36 3 -52 -1 -72 -18z
m109 -21 c8 -20 -13 -45 -37 -45 -10 0 -23 -9 -29 -20 -9 -18 -8 -20 14 -20
34 0 24 -25 -15 -39 -36 -12 -39 -41 -5 -41 14 0 28 -5 32 -12 12 -19 -28 -39
-71 -36 l-40 3 2 48 c2 26 12 65 23 87 11 22 20 46 20 54 0 28 97 46 106 21z
m139 1 c19 -14 19 -15 1 -35 -11 -12 -30 -21 -43 -21 -28 0 -29 -11 -3 -35 25
-22 26 -66 3 -94 -23 -28 -81 -37 -107 -18 -27 20 -14 51 19 45 14 -3 32 0 41
7 14 10 13 13 -10 28 -58 39 -14 132 65 136 8 1 24 -5 34 -13z m163 -19 c11
-23 11 -36 -2 -82 -9 -29 -28 -68 -42 -85 -22 -26 -33 -31 -63 -28 -26 2 -39
10 -50 30 -30 54 28 182 87 191 45 7 56 3 70 -26z m191 -4 c0 -21 -8 -69 -17
-108 -15 -60 -21 -70 -41 -73 -21 -3 -23 -1 -19 27 4 30 -5 41 -17 21 -4 -6
-15 -8 -25 -5 -13 4 -19 -1 -24 -19 -7 -27 -34 -42 -49 -27 -7 7 -3 36 12 88
27 92 44 123 71 123 16 0 20 -7 20 -30 l0 -31 31 36 c41 46 59 46 58 -2z m147
22 c8 -20 -13 -45 -37 -45 -11 0 -19 -2 -19 -4 0 -2 -3 -11 -6 -20 -4 -11 0
-16 15 -16 29 0 16 -26 -20 -39 -36 -12 -39 -41 -5 -41 33 0 44 -20 21 -37
-25 -18 -94 -17 -101 1 -5 14 11 83 37 158 10 26 22 39 44 46 45 15 65 14 71
-3z m274 -4 c26 -49 -3 -161 -51 -195 -54 -37 -109 -9 -109 56 0 68 49 141
100 151 45 8 49 7 60 -12z m-165 0 c3 -5 -12 -44 -34 -85 l-39 -77 26 3 c21 2
28 -2 30 -19 4 -25 -25 -37 -74 -31 -24 2 -30 8 -32 32 -3 27 38 144 61 174
11 14 53 16 62 3z"/>
<path d="M766 411 c-15 -29 -25 -60 -22 -68 15 -37 62 51 54 99 -3 19 -8 14
-32 -31z"/>
<path d="M1393 430 c-28 -45 -38 -86 -24 -95 14 -8 53 78 49 108 -3 20 -5 19
-25 -13z"/>
</g>
</svg>
