<?xml version="1.0" standalone="no"?>
<!DOCTYPE svg PUBLIC "-//W3C//DTD SVG 20010904//EN"
 "http://www.w3.org/TR/2001/REC-SVG-20010904/DTD/svg10.dtd">
<svg version="1.0" xmlns="http://www.w3.org/2000/svg"
 width="192.000000pt" height="192.000000pt" viewBox="0 0 192.000000 192.000000"
 preserveAspectRatio="xMidYMid meet">
<metadata>
Created by potrace 1.10, written by Peter Selinger 2001-2011
</metadata>
<g transform="translate(0.000000,192.000000) scale(0.100000,-0.100000)"
fill="#000000" stroke="none">
<path d="M0 960 l0 -960 960 0 960 0 0 960 0 960 -960 0 -960 0 0 -960z m895
940 c-13 -6 11 -8 70 -8 65 0 83 2 65 9 -17 6 3 7 58 4 107 -6 251 -54 364
-121 112 -67 267 -221 329 -329 82 -141 130 -292 128 -400 -1 -43 -2 -46 -9
-20 -5 19 -8 -7 -8 -75 0 -74 3 -96 9 -75 5 20 7 2 4 -53 -6 -107 -54 -251
-121 -364 -67 -112 -221 -267 -329 -329 -140 -81 -297 -131 -403 -128 -46 2
-46 2 -12 9 23 5 -6 7 -80 7 -82 0 -105 -2 -80 -8 24 -5 8 -7 -48 -4 -107 6
-250 53 -364 121 -112 67 -267 221 -329 329 -57 99 -94 191 -114 285 -16 75
-20 195 -5 135 5 -19 8 7 8 75 0 74 -3 96 -9 75 -5 -20 -7 -2 -4 53 6 107 54
251 121 364 67 112 221 267 329 329 95 55 195 96 279 114 70 15 184 19 151 5z"/>
<path d="M732 1870 c-68 -14 -215 -83 -306 -144 -154 -102 -301 -298 -348
-460 -6 -22 -16 -47 -22 -55 -7 -9 -12 -94 -14 -225 -2 -185 0 -220 18 -280
43 -153 126 -290 247 -409 91 -90 180 -150 284 -194 133 -56 160 -60 360 -62
201 -2 256 6 367 55 81 36 193 105 186 115 -3 5 1 6 9 3 20 -7 170 145 220
224 62 99 65 104 82 142 54 119 60 156 59 360 -1 273 2 249 -49 375 -4 11 -9
26 -11 33 -1 8 -8 21 -16 30 -7 10 -19 27 -25 40 -7 12 -19 32 -25 45 -36 64
-128 168 -141 160 -6 -3 -7 -2 -4 4 6 9 -69 81 -78 75 -3 -1 -15 7 -28 19 -33
31 -137 90 -148 84 -5 -4 -9 -2 -9 3 0 5 -33 22 -72 37 -70 27 -81 28 -283 31
-116 2 -229 -1 -253 -6z m271 -137 c-7 -2 -21 -2 -30 0 -10 3 -4 5 12 5 17 0
24 -2 18 -5z m192 -98 c55 -14 102 -31 106 -36 3 -6 19 -8 35 -4 17 3 22 2 12
-2 -14 -7 -7 -14 35 -36 29 -15 80 -49 113 -76 34 -28 65 -47 69 -43 5 4 5 2
2 -4 -8 -14 16 -37 27 -27 4 4 4 -1 0 -11 -5 -14 -4 -17 4 -12 7 4 12 3 12 -3
0 -6 16 -36 35 -66 48 -74 73 -136 91 -218 24 -117 19 -193 -24 -333 -11 -36
-57 -122 -79 -146 -8 -9 -12 -21 -8 -27 3 -7 0 -8 -10 -5 -11 5 -14 2 -9 -10
9 -24 -1 -20 -42 17 -21 17 -49 38 -63 45 -14 7 -17 10 -6 7 17 -6 17 -3 -5
20 -16 17 -30 23 -44 19 -15 -4 -17 -3 -7 4 17 12 -1 24 -26 16 -13 -4 -15 -3
-4 4 17 12 -1 24 -26 16 -14 -5 -15 -4 -3 5 11 8 3 15 -40 35 -30 14 -63 26
-73 26 -10 0 -16 4 -13 9 3 5 -7 11 -22 14 -15 3 -54 13 -87 22 -39 10 -106
16 -190 17 -156 1 -246 -15 -337 -64 -21 -10 -38 -17 -38 -13 0 6 -69 -31
-116 -62 -19 -12 -22 -18 -12 -25 9 -6 7 -8 -7 -6 -12 2 -19 -2 -17 -10 1 -8
-2 -11 -8 -7 -5 3 -15 3 -21 -1 -8 -4 -7 -9 2 -15 10 -6 11 -9 2 -9 -25 0 -28
-2 -46 -18 -10 -8 -15 -22 -12 -29 3 -8 0 -11 -6 -8 -5 4 -16 1 -24 -5 -11 -9
-20 -6 -41 16 -31 34 -104 182 -104 211 0 12 -5 23 -10 25 -26 8 -27 234 -1
293 5 11 19 46 31 78 13 32 41 86 64 119 23 34 46 70 52 80 6 10 13 16 16 13
3 -3 11 2 19 12 12 15 12 16 -4 10 -11 -4 -16 -3 -12 3 4 6 12 9 19 8 6 -2 32
13 56 33 25 20 71 52 103 71 33 20 53 38 45 41 -7 2 -1 2 15 0 15 -3 27 0 27
5 0 9 164 53 245 66 75 11 262 -3 360 -29z m306 -132 c13 -16 12 -17 -3 -4
-10 7 -18 15 -18 17 0 8 8 3 21 -13z m159 -163 c0 -5 -5 -10 -11 -10 -5 0 -7
5 -4 10 3 6 8 10 11 10 2 0 4 -4 4 -10z m-1493 -152 c-3 -8 -6 -5 -6 6 -1 11
2 17 5 13 3 -3 4 -12 1 -19z m1590 -95 c-3 -10 -5 -2 -5 17 0 19 2 27 5 18 2
-10 2 -26 0 -35z m0 -270 c-3 -10 -5 -2 -5 17 0 19 2 27 5 18 2 -10 2 -26 0
-35z m-954 0 c-7 -2 -19 -2 -25 0 -7 3 -2 5 12 5 14 0 19 -2 13 -5z m-86 -19
c-3 -3 -12 -4 -19 -1 -8 3 -5 6 6 6 11 1 17 -2 13 -5z m480 0 c-3 -3 -12 -4
-19 -1 -8 3 -5 6 6 6 11 1 17 -2 13 -5z m-1030 -56 c-3 -8 -6 -5 -6 6 -1 11 2
17 5 13 3 -3 4 -12 1 -19z m546 -216 c11 -10 21 -9 43 3 38 19 74 19 103 -1
19 -14 27 -14 46 -4 14 8 37 10 59 6 23 -4 36 -3 36 4 0 14 43 13 58 -2 9 -9
21 -9 50 0 50 15 77 15 103 0 17 -11 22 -10 32 2 15 19 45 14 73 -12 14 -12
24 -16 28 -9 8 12 84 36 106 32 24 -3 60 -50 60 -77 0 -56 -24 -117 -61 -156
-37 -39 -40 -40 -86 -34 -54 8 -51 8 -115 0 -25 -3 -54 -1 -64 4 -12 7 -27 5
-49 -4 -22 -9 -43 -10 -71 -4 -21 5 -53 10 -70 10 -17 0 -37 7 -44 15 -11 13
-15 12 -37 -5 -29 -23 -54 -25 -70 -9 -9 9 -19 9 -40 1 -46 -18 -68 -18 -98 2
-24 16 -31 17 -49 6 -13 -9 -63 -15 -133 -16 -126 -4 -143 3 -143 59 1 44 45
166 67 183 27 20 81 28 110 15 26 -12 67 -6 59 8 -8 12 81 -4 97 -17z"/>
<path d="M755 1633 c-208 -44 -419 -190 -513 -354 -57 -101 -75 -172 -76 -299
-1 -113 5 -144 42 -235 13 -32 73 -138 88 -154 2 -2 38 29 80 68 91 85 228
157 363 190 104 26 285 28 391 6 153 -32 307 -113 409 -215 l53 -53 19 24 c32
41 88 161 104 224 19 77 19 211 -1 288 -63 246 -278 438 -567 507 -100 24
-287 26 -392 3z m327 -70 c65 -58 21 -153 -70 -153 -38 0 -90 35 -98 65 -21
85 101 149 168 88z m-244 -118 c50 -42 102 -79 115 -84 23 -9 59 0 265 67 55
18 94 26 98 20 3 -5 4 -10 3 -12 -2 -1 -52 -37 -111 -80 -58 -43 -114 -86
-124 -97 -24 -27 -20 -72 14 -132 35 -62 59 -154 44 -169 -6 -6 -34 18 -82 74
-39 46 -78 87 -86 91 -10 6 -33 -19 -86 -92 -43 -58 -80 -100 -90 -100 -10 -1
-18 4 -18 10 0 5 25 69 56 141 68 157 69 149 -40 306 -111 160 -102 173 42 57z
m-274 -96 c64 -50 -6 -141 -84 -109 -54 22 -65 66 -25 105 30 31 73 32 109 4z
m136 -61 c0 -19 -54 -137 -62 -138 -5 0 -8 7 -8 15 0 8 4 15 8 15 4 0 15 20
24 45 16 43 16 44 -2 33 -10 -7 -17 -15 -14 -19 7 -11 -7 -39 -19 -39 -7 0 -7
4 1 12 30 30 8 26 -34 -7 -55 -41 -79 -43 -160 -14 -32 12 -66 22 -74 24 -8 1
-28 7 -44 14 -43 17 -42 7 3 -22 24 -16 41 -22 43 -15 5 13 48 -11 48 -26 0
-6 -5 -5 -12 2 -7 7 -19 12 -27 12 -8 0 0 -14 21 -34 55 -53 64 -85 46 -159
-9 -34 -19 -71 -23 -82 -5 -14 0 -11 18 10 13 16 23 35 20 41 -2 7 0 15 6 19
6 3 11 2 11 -4 0 -6 11 1 25 14 13 14 31 25 40 25 8 0 31 -23 51 -51 27 -37
39 -47 45 -37 13 20 11 28 -8 28 -12 0 -14 3 -6 8 9 5 9 19 3 47 -12 52 -12
106 0 125 7 11 9 3 4 -25 -6 -40 -2 -60 34 -193 18 -66 18 -73 3 -70 -12 3
-15 12 -13 42 3 27 0 36 -7 31 -7 -4 -9 -15 -6 -26 10 -31 0 -22 -44 41 -25
35 -50 60 -60 60 -10 0 -41 -29 -70 -65 -49 -60 -71 -78 -71 -57 0 5 11 46 25
92 36 120 25 143 -112 245 -81 60 -53 65 86 15 74 -26 129 -40 143 -37 13 4
52 31 88 61 68 58 80 64 80 44z m752 -25 c40 -36 6 -96 -54 -96 -32 0 -68 31
-68 59 0 45 85 71 122 37z m138 -20 c0 -5 -19 -51 -42 -103 l-41 -95 12 -73
c7 -40 21 -98 32 -129 35 -102 21 -99 -62 12 -34 47 -70 85 -79 85 -9 0 -35
-29 -58 -65 -29 -46 -45 -63 -57 -59 -21 8 -19 20 16 118 41 111 36 126 -72
198 -117 79 -102 105 28 48 37 -16 76 -34 85 -40 40 -23 75 -11 150 49 72 59
88 68 88 54z m-1143 -79 c-3 -3 -12 -4 -19 -1 -8 3 -5 6 6 6 11 1 17 -2 13 -5z
m33 -24 c0 -5 -2 -10 -4 -10 -3 0 -8 5 -11 10 -3 6 -1 10 4 10 6 0 11 -4 11
-10z m70 0 c0 -5 -5 -10 -11 -10 -5 0 -7 5 -4 10 3 6 8 10 11 10 2 0 4 -4 4
-10z m-95 -20 c3 -6 -1 -7 -9 -4 -18 7 -21 14 -7 14 6 0 13 -4 16 -10z m-50
-20 c3 -5 1 -10 -4 -10 -6 0 -11 5 -11 10 0 6 2 10 4 10 3 0 8 -4 11 -10z
m-38 -22 c-3 -8 -6 -5 -6 6 -1 11 2 17 5 13 3 -3 4 -12 1 -19z m110 -55 c-3
-10 -5 -2 -5 17 0 19 2 27 5 18 2 -10 2 -26 0 -35z m110 -10 c-3 -10 -5 -4 -5
12 0 17 2 24 5 18 2 -7 2 -21 0 -30z m-37 17 c0 -5 -2 -10 -4 -10 -3 0 -8 5
-11 10 -3 6 -1 10 4 10 6 0 11 -4 11 -10z"/>
<path d="M962 1550 c-28 -17 -33 -25 -30 -52 2 -22 11 -36 25 -44 13 -6 20
-14 16 -17 -13 -14 55 -6 85 9 28 13 32 21 32 54 0 34 -4 42 -30 55 -39 20
-58 19 -98 -5z m115 -32 c-3 -8 -6 -5 -6 6 -1 11 2 17 5 13 3 -3 4 -12 1 -19z"/>
<path d="M810 1420 c0 -11 33 -72 60 -110 43 -62 42 -102 -6 -205 -20 -44 -37
-87 -37 -95 0 -8 -9 -28 -19 -45 l-20 -30 24 26 c39 44 56 67 94 124 46 69 66
71 118 10 21 -24 42 -42 47 -39 5 3 6 -1 4 -8 -3 -8 8 -27 25 -43 l30 -29 0
25 c0 13 -18 60 -40 104 -51 102 -51 132 -2 182 20 22 50 44 65 51 17 7 25 17
21 24 -4 6 -3 8 4 4 14 -8 23 6 13 22 -5 8 -31 3 -95 -18 -98 -33 -121 -36
-163 -18 -15 6 -31 11 -35 10 -5 -1 -8 4 -8 12 0 8 -13 20 -30 28 -16 7 -30
16 -30 20 0 5 -4 8 -10 8 -5 0 -10 -4 -10 -10z"/>
<path d="M1213 1403 c9 -2 23 -2 30 0 6 3 -1 5 -18 5 -16 0 -22 -2 -12 -5z"/>
<path d="M480 1347 c-18 -9 -26 -22 -28 -45 -3 -31 11 -44 22 -19 3 6 4 3 3
-8 -2 -16 5 -21 31 -23 55 -5 86 40 54 77 -23 26 -52 33 -82 18z m30 -27 c0
-5 -2 -10 -4 -10 -3 0 -8 5 -11 10 -3 6 -1 10 4 10 6 0 11 -4 11 -10z m45 0
c3 -5 2 -10 -4 -10 -5 0 -13 5 -16 10 -3 6 -2 10 4 10 5 0 13 -4 16 -10z m-5
-42 c0 -5 -14 -8 -31 -8 -16 0 -28 3 -26 8 3 4 17 7 31 7 14 0 26 -3 26 -7z"/>
<path d="M1362 1239 c-18 -28 0 -49 44 -49 24 0 34 5 39 20 15 46 -57 71 -83
29z"/>
<path d="M1513 1176 c-4 -7 -26 -26 -48 -40 -33 -23 -46 -26 -84 -21 -24 3
-58 13 -75 23 -17 9 -33 17 -36 17 -3 1 -13 5 -23 10 -37 16 -24 -2 23 -33 28
-18 58 -44 67 -59 16 -24 24 -92 13 -103 -11 -11 -47 -109 -43 -114 3 -3 23
19 45 49 24 34 46 55 58 55 12 0 35 -20 57 -49 40 -52 71 -75 58 -44 -4 10
-14 53 -23 95 l-16 77 31 76 c22 54 27 75 17 75 -7 0 -17 -6 -21 -14z"/>
<path d="M490 519 c-28 -8 -38 -17 -48 -47 -31 -89 -44 -141 -39 -156 8 -20
75 -22 102 -3 23 18 12 37 -22 37 -19 0 -24 4 -19 16 3 9 6 18 6 20 0 2 6 4
13 4 8 0 22 9 32 20 18 20 17 20 -9 20 -24 0 -25 2 -14 20 7 11 20 20 29 20
22 0 43 26 35 45 -6 17 -15 17 -66 4z"/>
<path d="M630 523 c-61 -22 -81 -99 -34 -129 31 -21 19 -37 -28 -38 -40 -1
-50 -29 -17 -46 28 -16 94 3 109 30 16 30 12 65 -10 85 -26 24 -25 35 3 35 13
0 32 9 43 21 18 20 18 21 -1 35 -19 14 -39 17 -65 7z"/>
<path d="M788 523 c-48 -8 -98 -89 -98 -160 0 -32 34 -63 68 -63 64 0 132 137
99 200 -13 26 -25 30 -69 23z m8 -105 c-9 -54 -34 -94 -48 -80 -8 8 -3 28 16
66 15 31 30 56 33 56 3 0 3 -19 -1 -42z"/>
<path d="M986 489 l-35 -42 9 31 c10 36 1 47 -30 37 -25 -8 -37 -31 -61 -114
-24 -84 -24 -91 5 -91 18 0 27 8 36 33 7 17 14 26 17 20 6 -17 18 -16 37 2 13
14 14 11 9 -21 -6 -33 -4 -36 18 -32 20 3 26 13 41 73 21 90 23 145 4 145 -8
0 -30 -19 -50 -41z"/>
<path d="M1130 519 c-28 -8 -38 -17 -48 -47 -31 -89 -44 -141 -39 -156 8 -20
75 -22 102 -3 23 18 12 37 -22 37 -19 0 -24 4 -19 16 3 9 6 18 6 20 0 2 6 4
13 4 8 0 22 9 32 20 18 20 17 20 -9 20 -24 0 -25 2 -14 20 7 11 20 20 29 20
22 0 43 26 35 45 -6 17 -15 17 -66 4z"/>
<path d="M1410 523 c-74 -14 -133 -160 -82 -206 60 -54 151 30 152 140 0 38
-20 75 -38 72 -4 -1 -18 -4 -32 -6z m-9 -148 c-12 -28 -25 -44 -32 -40 -14 9
-5 44 24 92 19 34 22 35 25 16 2 -12 -6 -43 -17 -68z"/>
<path d="M1243 508 c-4 -7 -22 -46 -39 -88 -35 -85 -33 -113 11 -118 48 -6 77
6 73 31 -2 17 -9 21 -30 19 l-26 -3 39 77 c22 41 37 80 34 85 -9 13 -52 11
-62 -3z"/>
</g>
</svg>
