<svg xmlns="http://www.w3.org/2000/svg" width="192" height="192" viewBox="0 0 192 192" version="1.1"><path d="M 79.342 28.411 C 28.798 38.067, 1.455 85.964, 24.550 124.390 C 29.777 133.087, 29.296 132.953, 35.230 127.366 C 42.118 120.881, 48.309 116.705, 57.506 112.337 C 66.414 108.106, 66.155 109.478, 59.750 100.449 C 53.313 91.375, 52.802 91.359, 46.189 100.033 C 38.359 110.304, 36.851 109.503, 40.650 97.091 C 44.482 84.573, 43.654 82.637, 29.750 71.627 C 21.109 64.785, 23.550 64.399, 40.458 69.934 C 54 74.367, 53.088 74.496, 62.293 66.836 C 70.646 59.884, 72.758 60.597, 68.529 68.942 C 61.678 82.462, 61.621 82.898, 64.985 95.766 C 68.608 109.618, 67.219 108.168, 75.006 106.222 C 85.350 103.638, 106.124 104.072, 117.568 107.112 C 126.636 109.521, 126.636 109.521, 129.818 100.899 C 134.749 87.540, 134.498 86.668, 123.550 79.100 C 116.447 74.189, 114.705 71.918, 116.969 70.519 C 117.503 70.189, 122.722 71.963, 128.568 74.460 C 141.708 80.073, 140.260 80.173, 149.760 73 C 157.407 67.226, 160.787 65.611, 159.699 68.250 C 159.416 68.938, 157.313 73.678, 155.026 78.784 C 150.443 89.017, 150.560 92.916, 155.908 108.296 C 157.685 113.405, 156.839 117.739, 154.625 114.874 C 154.466 114.668, 151.522 110.763, 148.082 106.195 C 140.816 96.549, 141.045 96.566, 135.416 105.243 C 131.541 111.215, 131.289 111.957, 132.950 112.484 C 136.638 113.655, 147.452 121.289, 153.235 126.806 C 160.009 133.267, 159.801 133.349, 165.996 121.814 C 192.038 73.322, 139.678 16.884, 79.342 28.411 M 96.329 34.410 C 90.703 36.942, 89.300 42.912, 93.252 47.506 C 96.200 50.934, 102.414 51.872, 106.880 49.562 C 117.988 43.818, 107.832 29.233, 96.329 34.410 M 72 40.977 C 72 41.514, 75.600 47.402, 80 54.061 C 89.704 68.749, 89.721 68.915, 83 85 C 75.494 102.966, 77.395 104.523, 88.457 89.468 C 96.881 78.005, 96.042 78.050, 105.566 88.540 C 116.025 100.062, 118.237 95.318, 110.008 79.015 C 104.871 68.840, 105.217 68.079, 119.891 57.273 C 126.276 52.572, 131.695 48.555, 131.933 48.346 C 135.014 45.649, 128.174 46.754, 115.491 51.003 C 95.807 57.597, 96.610 57.675, 84.500 48 C 75.042 40.444, 72 38.734, 72 40.977 M 47.400 55.436 C 42.247 57.666, 41.343 63.551, 45.635 66.927 C 51.083 71.213, 59 67.968, 59 61.450 C 59 56.175, 52.946 53.036, 47.400 55.436 M 138 63.689 C 132.946 65.617, 131.520 70.520, 135 74 C 139.130 78.130, 147.250 75.213, 147.250 69.600 C 147.250 65.263, 142.250 62.067, 138 63.689" stroke="none" fill="#eeca0e" fill-rule="evenodd"/><path d="M 90.728 26.722 C 92.503 26.943, 95.653 26.946, 97.728 26.730 C 99.802 26.513, 98.350 26.333, 94.500 26.328 C 90.650 26.324, 88.952 26.501, 90.728 26.722" stroke="none" fill="#703365" fill-rule="evenodd"/><path d="M 93.923 36.923 C 89.454 41.392, 90.633 46.649, 96.754 49.554 C 103.585 52.795, 111 48.810, 111 41.898 C 111 34.090, 99.970 30.877, 93.923 36.923 M 72.610 40.821 C 72.331 41.273, 75.664 46.990, 80.017 53.525 C 90.418 69.142, 90.312 68.241, 83.574 83.915 C 75.424 102.873, 76.830 104.627, 88.051 89.500 C 96.620 77.948, 96.753 77.937, 105.376 88 C 111.817 95.517, 115 97.727, 115 94.682 C 115 91.983, 111.911 83.092, 109.431 78.656 C 104.253 69.390, 105.090 67.794, 121.491 55.674 C 135.027 45.671, 134.077 45.221, 113.602 51.935 C 95.316 57.931, 96.612 58.123, 83.341 47.449 C 73.623 39.633, 73.422 39.509, 72.610 40.821" stroke="none" fill="#a60402" fill-rule="evenodd"/><path d="M 176.250 58.790 C 171.713 58.950, 168 59.513, 168 60.040 C 168 60.568, 167.122 61, 166.049 61 C 164.253 61, 164.373 61.577, 167.558 68.285 C 176.187 86.454, 175.779 105.209, 166.369 123 C 160.039 134.969, 160.381 134.858, 152.641 127.454 C 120.629 96.828, 55.860 98.896, 32.801 131.280 C 26.834 139.659, 15.400 112.104, 16.197 91.269 C 16.604 80.638, 14.764 75.208, 12.776 81.172 C 12.555 81.834, 9.634 82.544, 6.074 82.801 C -6.676 83.723, -0.314 124.950, 16.523 150.515 C 62.400 220.173, 179.787 195.467, 190.611 113.876 C 190.970 111.170, 191.654 108.714, 192.132 108.419 C 192.609 108.123, 193 102.032, 193 94.882 C 193 86.470, 192.647 82.100, 192 82.500 C 191.437 82.848, 191 82.048, 191 80.671 C 191 78.105, 186.424 61.450, 185.206 59.582 C 184.767 58.909, 181.379 58.610, 176.250 58.790 M 0.392 96 C 0.392 103.425, 0.549 106.463, 0.742 102.750 C 0.934 99.037, 0.934 92.963, 0.742 89.250 C 0.549 85.537, 0.392 88.575, 0.392 96 M 47.323 140.004 C 44.412 141.178, 40.952 149.149, 40.272 156.250 C 39.722 162.005, 49.629 165.736, 51.629 160.526 C 52.127 159.227, 52.369 159.227, 53.669 160.526 C 60.230 167.087, 71.662 156.926, 65.925 149.632 C 63.957 147.129, 63.944 146.965, 65.675 146.425 C 72.366 144.337, 72.726 139.661, 66.231 139.192 C 57.945 138.593, 52.982 147.299, 58.627 152.530 C 61.370 155.072, 60.068 157.008, 56.529 155.649 C 55.720 155.339, 54.370 155.773, 53.529 156.614 C 52.688 157.455, 52 157.661, 52 157.071 C 52 156.482, 50.875 156, 49.500 156 C 46.199 156, 46.321 154.435, 49.750 152.791 C 52.784 151.337, 53.549 148.324, 50.766 148.790 C 47.906 149.269, 49.801 146.265, 53.080 145.122 C 57.552 143.563, 57.302 138.975, 52.750 139.063 C 50.962 139.098, 48.520 139.522, 47.323 140.004 M 75.114 140.633 C 70.164 144.100, 67.223 156.188, 70.305 160.402 C 72.660 163.623, 78.759 162.953, 82.206 159.095 C 84.432 156.604, 85.113 156.246, 84.966 157.644 C 84.585 161.248, 85.026 162, 87.521 162 C 89.241 162, 90.405 161.204, 91.182 159.500 C 92.618 156.348, 95.746 156.191, 96.180 159.250 C 96.732 163.133, 101.223 162.278, 102.747 158 C 103.761 155.155, 103.974 154.968, 103.887 157 C 103.667 162.087, 103.702 162.115, 109.750 161.800 C 116.029 161.472, 118.832 156.973, 113.250 156.180 C 110.222 155.750, 110.427 154.833, 114.006 152.797 C 117.443 150.841, 117.924 149, 115 149 C 112.091 149, 112.551 147.117, 115.750 145.930 C 121.316 143.865, 122.223 139, 117.042 139 C 113.118 139, 108 140.972, 108 142.483 C 108 143.191, 107.330 145.285, 106.510 147.135 C 105.020 150.500, 105.020 150.500, 105.260 145.036 C 105.542 138.618, 103.502 137.240, 99.411 141.084 C 97.391 142.981, 97 143.077, 97 141.674 C 97 138.105, 91.254 139.609, 89.068 143.750 C 87.389 146.930, 87.082 147.148, 87.044 145.184 C 86.930 139.184, 80.620 136.776, 75.114 140.633 M 125.223 139.671 C 122.395 140.808, 116.405 156.548, 117.494 159.980 C 118.317 162.574, 128.396 163.016, 129.362 160.500 C 130.235 158.225, 129.014 156, 126.893 156 C 124.509 156, 124.440 156.422, 128.101 148.597 C 131.975 140.320, 131.015 137.343, 125.223 139.671 M 136.615 141.088 C 131.014 145.494, 128.465 156.887, 132.236 160.662 C 139.682 168.118, 152.312 152.842, 148.025 141.565 C 146.749 138.209, 140.602 137.952, 136.615 141.088 M 138.632 151.707 C 137.611 153.972, 137 156.427, 137.276 157.163 C 137.914 158.867, 141.221 151.388, 140.799 149.196 C 140.613 148.229, 139.750 149.229, 138.632 151.707 M 76.639 151.817 C 75.671 153.642, 75.042 155.892, 75.240 156.817 C 75.504 158.048, 76.073 157.609, 77.361 155.183 C 78.329 153.358, 78.958 151.108, 78.760 150.183 C 78.496 148.952, 77.927 149.391, 76.639 151.817" stroke="none" fill="#160c6c" fill-rule="evenodd"/><path d="M 47.476 140.948 C 45.589 141.713, 42.189 149.703, 40.587 157.136 C 39.763 160.961, 42.103 162.575, 46.790 161.414 C 51.287 160.300, 52.620 157, 48.573 157 C 45.022 157, 45.266 154.431, 49 152.500 C 52.455 150.713, 52.928 149, 49.965 149 C 48.240 149, 48.093 148.695, 49 147 C 49.589 145.900, 50.697 145, 51.464 145 C 53.317 145, 56.168 142.081, 55.450 140.919 C 54.761 139.804, 50.256 139.820, 47.476 140.948 M 59.455 142.455 C 56.261 145.648, 56.348 148.710, 59.732 152.243 C 62.896 155.545, 61.605 157.438, 56.789 156.560 C 53.642 155.986, 52.295 157.446, 54.036 159.544 C 55.976 161.880, 62.297 161.378, 64.826 158.686 C 67.579 155.755, 67.596 152.633, 64.872 150.095 C 62.263 147.664, 63.034 145, 66.346 145 C 69.539 145, 71.984 142.235, 69.936 140.939 C 67.130 139.164, 62.004 139.905, 59.455 142.455 M 75.199 142.029 C 67.521 149.182, 67.694 162, 75.469 162 C 82.060 162, 88.301 149.160, 85.393 141.582 C 84.488 139.224, 77.900 139.513, 75.199 142.029 M 91.566 142.343 C 89.400 144.509, 87.548 149.313, 85.434 158.250 C 84.852 160.709, 85.057 161, 87.373 161 C 89.309 161, 90.122 160.362, 90.597 158.469 C 91.065 156.603, 91.704 156.089, 93.032 156.510 C 94.022 156.824, 95.121 156.613, 95.475 156.041 C 96.730 154.009, 97.647 155.043, 97.213 158 C 96.708 161.446, 100.218 162.479, 101.458 159.250 C 102.444 156.686, 105 144.188, 105 141.935 C 105 138.873, 101.461 139.599, 98.584 143.250 C 96.022 146.500, 96.022 146.500, 96.011 143.809 C 95.995 140.011, 94.419 139.491, 91.566 142.343 M 111.476 140.948 C 109.124 141.901, 104.974 152.673, 104.990 157.781 C 105.002 161.612, 106.528 162.499, 111.508 161.565 C 115.843 160.751, 116.658 157, 112.500 157 C 109.018 157, 109.306 154.410, 113 152.500 C 116.455 150.713, 116.928 149, 113.965 149 C 111.228 149, 113.006 145.445, 116.249 144.433 C 118.445 143.748, 119.954 142.260, 119.985 140.750 C 120.005 139.763, 114.056 139.901, 111.476 140.948 M 124.669 141.474 C 122.664 143.479, 117.762 156.523, 118.186 158.725 C 118.646 161.117, 128.500 161.380, 128.500 159 C 128.500 158.110, 127.390 157.372, 125.770 157.185 C 123.040 156.871, 123.040 156.871, 126.520 149.960 C 131.096 140.875, 130.052 136.091, 124.669 141.474 M 136.103 142.890 C 128.328 151.213, 130.523 163.842, 139.360 161.625 C 144.402 160.359, 149.419 148.955, 147.433 143.273 C 145.937 138.993, 139.933 138.790, 136.103 142.890 M 77.194 149.209 C 74.729 153.172, 73.857 157.754, 75.500 158.105 C 77.064 158.440, 80.174 151.365, 79.819 148.278 C 79.500 145.500, 79.500 145.500, 77.194 149.209 M 138.965 149.250 C 136.328 153.522, 135.501 156.901, 136.780 158.180 C 138.253 159.653, 141.050 155.044, 141.722 150.038 C 142.377 145.152, 141.627 144.937, 138.965 149.250" stroke="none" fill="#ffffff" fill-rule="evenodd"/><path d="M 135 66 C 132.541 68.459, 132.478 70.162, 134.750 72.847 C 138.652 77.458, 147 75.233, 147 69.582 C 147 64.413, 138.981 62.019, 135 66 M 150.520 72.985 C 141.267 80.135, 140.861 80.170, 128.591 74.886 C 114.064 68.630, 112.077 70.622, 124.424 79.065 C 134.502 85.956, 135.043 87.617, 130.966 99.155 C 125.828 113.694, 127.988 115.886, 135.683 103.942 C 140.626 96.269, 141.319 96.403, 148.942 106.500 C 155.341 114.977, 157.827 117.013, 156.570 112.750 C 150.057 90.653, 149.991 89.038, 155.126 77.329 C 160.228 65.697, 160.103 65.579, 150.520 72.985" stroke="none" fill="#3fbe10" fill-rule="evenodd"/><path d="M 28.071 67.956 C 27.250 68.464, 27.614 69.172, 29.245 70.241 C 41.281 78.127, 45.184 84.946, 42.557 93.500 C 39.951 101.986, 42.206 104.048, 47 97.563 C 51.903 90.930, 53.920 90.836, 58.315 97.032 C 63.501 104.343, 66.019 102.385, 63.500 93 C 61.390 85.138, 61.625 82.095, 64.904 74.886 C 68.743 66.444, 66.546 64.749, 59.191 70.479 C 53.589 74.844, 51.931 74.855, 39.327 70.610 C 33.791 68.746, 28.726 67.551, 28.071 67.956" stroke="none" fill="#8c03ed" fill-rule="evenodd"/><path d="M 176.250 58.790 C 171.713 58.950, 168 59.513, 168 60.040 C 168 60.568, 167.122 61, 166.049 61 C 164.253 61, 164.373 61.577, 167.558 68.285 C 176.187 86.454, 175.779 105.209, 166.369 123 C 160.039 134.969, 160.381 134.858, 152.641 127.454 C 120.629 96.828, 55.860 98.896, 32.801 131.280 C 26.834 139.659, 15.400 112.104, 16.197 91.269 C 16.604 80.638, 14.764 75.208, 12.776 81.172 C 12.555 81.834, 9.634 82.544, 6.074 82.801 C -6.676 83.723, -0.314 124.950, 16.523 150.515 C 62.400 220.173, 179.787 195.467, 190.611 113.876 C 190.970 111.170, 191.654 108.714, 192.132 108.419 C 192.609 108.123, 193 102.032, 193 94.882 C 193 86.470, 192.647 82.100, 192 82.500 C 191.437 82.848, 191 82.048, 191 80.671 C 191 78.105, 186.424 61.450, 185.206 59.582 C 184.767 58.909, 181.379 58.610, 176.250 58.790 M 0.392 96 C 0.392 103.425, 0.549 106.463, 0.742 102.750 C 0.934 99.037, 0.934 92.963, 0.742 89.250 C 0.549 85.537, 0.392 88.575, 0.392 96 M 47.323 140.004 C 44.412 141.178, 40.952 149.149, 40.272 156.250 C 39.722 162.005, 49.629 165.736, 51.629 160.526 C 52.127 159.227, 52.369 159.227, 53.669 160.526 C 60.230 167.087, 71.662 156.926, 65.925 149.632 C 63.957 147.129, 63.944 146.965, 65.675 146.425 C 72.366 144.337, 72.726 139.661, 66.231 139.192 C 57.945 138.593, 52.982 147.299, 58.627 152.530 C 61.370 155.072, 60.068 157.008, 56.529 155.649 C 55.720 155.339, 54.370 155.773, 53.529 156.614 C 52.688 157.455, 52 157.661, 52 157.071 C 52 156.482, 50.875 156, 49.500 156 C 46.199 156, 46.321 154.435, 49.750 152.791 C 52.784 151.337, 53.549 148.324, 50.766 148.790 C 47.906 149.269, 49.801 146.265, 53.080 145.122 C 57.552 143.563, 57.302 138.975, 52.750 139.063 C 50.962 139.098, 48.520 139.522, 47.323 140.004 M 75.114 140.633 C 70.164 144.100, 67.223 156.188, 70.305 160.402 C 72.660 163.623, 78.759 162.953, 82.206 159.095 C 84.432 156.604, 85.113 156.246, 84.966 157.644 C 84.585 161.248, 85.026 162, 87.521 162 C 89.241 162, 90.405 161.204, 91.182 159.500 C 92.618 156.348, 95.746 156.191, 96.180 159.250 C 96.732 163.133, 101.223 162.278, 102.747 158 C 103.761 155.155, 103.974 154.968, 103.887 157 C 103.667 162.087, 103.702 162.115, 109.750 161.800 C 116.029 161.472, 118.832 156.973, 113.250 156.180 C 110.222 155.750, 110.427 154.833, 114.006 152.797 C 117.443 150.841, 117.924 149, 115 149 C 112.091 149, 112.551 147.117, 115.750 145.930 C 121.316 143.865, 122.223 139, 117.042 139 C 113.118 139, 108 140.972, 108 142.483 C 108 143.191, 107.330 145.285, 106.510 147.135 C 105.020 150.500, 105.020 150.500, 105.260 145.036 C 105.542 138.618, 103.502 137.240, 99.411 141.084 C 97.391 142.981, 97 143.077, 97 141.674 C 97 138.105, 91.254 139.609, 89.068 143.750 C 87.389 146.930, 87.082 147.148, 87.044 145.184 C 86.930 139.184, 80.620 136.776, 75.114 140.633 M 125.223 139.671 C 122.395 140.808, 116.405 156.548, 117.494 159.980 C 118.317 162.574, 128.396 163.016, 129.362 160.500 C 130.235 158.225, 129.014 156, 126.893 156 C 124.509 156, 124.440 156.422, 128.101 148.597 C 131.975 140.320, 131.015 137.343, 125.223 139.671 M 136.615 141.088 C 131.014 145.494, 128.465 156.887, 132.236 160.662 C 139.682 168.118, 152.312 152.842, 148.025 141.565 C 146.749 138.209, 140.602 137.952, 136.615 141.088 M 138.632 151.707 C 137.611 153.972, 137 156.427, 137.276 157.163 C 137.914 158.867, 141.221 151.388, 140.799 149.196 C 140.613 148.229, 139.750 149.229, 138.632 151.707 M 76.639 151.817 C 75.671 153.642, 75.042 155.892, 75.240 156.817 C 75.504 158.048, 76.073 157.609, 77.361 155.183 C 78.329 153.358, 78.958 151.108, 78.760 150.183 C 78.496 148.952, 77.927 149.391, 76.639 151.817" stroke="none" fill="#160c6c" fill-rule="evenodd"/><path d="" stroke="none" fill="#dfca2d" fill-rule="evenodd"/><path d="M 81 0.707 C 40.655 7.718, 6.619 40.781, 1.510 77.925 C 0.814 82.985, 11.183 85.952, 12.783 81.151 C 12.994 80.518, 14.254 80, 15.583 80 C 17.284 80, 18 79.442, 18 78.116 C 18 71.163, 31.797 51.602, 42.472 43.420 C 77.345 16.689, 134.968 22.880, 159.706 56.016 C 163.169 60.654, 168 62.975, 168 60 C 168 59.416, 171.340 59, 176.019 59 C 185.484 59, 185.618 58.432, 178.864 46.952 C 159.298 13.694, 118.151 -5.749, 81 0.707 M 49 55.709 C 41.559 58.445, 42.950 68, 50.788 68 C 58.663 68, 61.274 59.268, 54.343 56.110 C 51.705 54.909, 51.267 54.876, 49 55.709 M 65.861 64.926 C 63.627 66.748, 63.602 66.891, 65.395 67.588 C 66.698 68.095, 67.712 67.746, 68.645 66.471 C 71.385 62.724, 69.704 61.791, 65.861 64.926 M 40 101.918 C 40 102.423, 39.727 103.548, 39.393 104.418 C 38.434 106.919, 40.600 106.259, 42.408 103.500 C 43.969 101.117, 43.951 101, 42.023 101 C 40.910 101, 40 101.413, 40 101.918 M 62.005 101.750 C 62.015 103.285, 66.928 108.501, 66.950 107 C 67.001 103.578, 65.683 101, 63.883 101 C 62.848 101, 62.002 101.338, 62.005 101.750" stroke="none" fill="#271a6c" fill-rule="evenodd"/></svg>